<mxfile host="drawio-plugin" modified="2021-08-10T19:04:59.226Z" agent="5.0 (Windows NT 6.2; Win64; x64) AppleWebKit/537.36 (KHTML, like Gecko) Chrome/89.0.4389.114 Safari/537.36" etag="6Og64AzoAIRTabIIO-pc" version="14.7.4" type="embed"><diagram id="mnnxQU1eYEH3grJZsbnW" name="Page-1"><mxGraphModel dx="1980" dy="1366" grid="1" gridSize="10" guides="1" tooltips="1" connect="1" arrows="1" fold="1" page="0" pageScale="1" pageWidth="850" pageHeight="1100" math="0" shadow="0"><root><mxCell id="0"/><mxCell id="1" parent="0"/><mxCell id="9" style="edgeStyle=orthogonalEdgeStyle;rounded=0;orthogonalLoop=1;jettySize=auto;html=1;exitX=0.5;exitY=0.5;exitDx=0;exitDy=0;exitPerimeter=0;entryX=0;entryY=0.5;entryDx=0;entryDy=0;" parent="1" source="3" target="7" edge="1"><mxGeometry relative="1" as="geometry"/></mxCell><mxCell id="10" style="edgeStyle=orthogonalEdgeStyle;rounded=0;orthogonalLoop=1;jettySize=auto;html=1;exitX=0.5;exitY=0.5;exitDx=0;exitDy=0;exitPerimeter=0;entryX=0;entryY=0.5;entryDx=0;entryDy=0;startArrow=classic;startFill=1;" parent="1" source="3" target="8" edge="1"><mxGeometry relative="1" as="geometry"/></mxCell><mxCell id="3" value="Player 1" style="shape=umlActor;verticalLabelPosition=bottom;verticalAlign=top;html=1;outlineConnect=0;" parent="1" vertex="1"><mxGeometry x="-350" y="-270" width="30" height="60" as="geometry"/></mxCell><mxCell id="11" style="edgeStyle=orthogonalEdgeStyle;rounded=0;orthogonalLoop=1;jettySize=auto;html=1;exitX=0.5;exitY=0.5;exitDx=0;exitDy=0;exitPerimeter=0;entryX=0;entryY=0.5;entryDx=0;entryDy=0;" parent="1" source="6" target="8" edge="1"><mxGeometry relative="1" as="geometry"/></mxCell><mxCell id="12" style="edgeStyle=orthogonalEdgeStyle;rounded=0;orthogonalLoop=1;jettySize=auto;html=1;exitX=0.5;exitY=0.5;exitDx=0;exitDy=0;exitPerimeter=0;entryX=0;entryY=0.5;entryDx=0;entryDy=0;startArrow=classic;startFill=1;" parent="1" source="6" target="7" edge="1"><mxGeometry relative="1" as="geometry"/></mxCell><mxCell id="6" value="Player 2" style="shape=umlActor;verticalLabelPosition=bottom;verticalAlign=top;html=1;outlineConnect=0;" parent="1" vertex="1"><mxGeometry x="-350" y="-130" width="30" height="60" as="geometry"/></mxCell><mxCell id="16" style="edgeStyle=orthogonalEdgeStyle;rounded=0;orthogonalLoop=1;jettySize=auto;html=1;entryX=0;entryY=0.5;entryDx=0;entryDy=0;" parent="1" source="7" target="15" edge="1"><mxGeometry relative="1" as="geometry"/></mxCell><mxCell id="18" style="edgeStyle=orthogonalEdgeStyle;rounded=0;orthogonalLoop=1;jettySize=auto;html=1;startArrow=classic;startFill=1;" parent="1" source="7" target="14" edge="1"><mxGeometry relative="1" as="geometry"/></mxCell><mxCell id="7" value="Router 1" style="ellipse;whiteSpace=wrap;html=1;" parent="1" vertex="1"><mxGeometry x="-180" y="-280" width="120" height="80" as="geometry"/></mxCell><mxCell id="17" style="edgeStyle=orthogonalEdgeStyle;rounded=0;orthogonalLoop=1;jettySize=auto;html=1;entryX=0;entryY=0.5;entryDx=0;entryDy=0;" parent="1" source="8" target="14" edge="1"><mxGeometry relative="1" as="geometry"/></mxCell><mxCell id="19" style="edgeStyle=orthogonalEdgeStyle;rounded=0;orthogonalLoop=1;jettySize=auto;html=1;startArrow=classic;startFill=1;" parent="1" source="8" target="15" edge="1"><mxGeometry relative="1" as="geometry"/></mxCell><mxCell id="8" value="Router 2" style="ellipse;whiteSpace=wrap;html=1;" parent="1" vertex="1"><mxGeometry x="-180" y="-140" width="120" height="80" as="geometry"/></mxCell><mxCell id="13" value="Load Balanced" style="text;html=1;strokeColor=none;fillColor=none;align=center;verticalAlign=middle;whiteSpace=wrap;rounded=0;" parent="1" vertex="1"><mxGeometry x="-300" y="-180" width="40" height="20" as="geometry"/></mxCell><mxCell id="30" style="edgeStyle=orthogonalEdgeStyle;rounded=0;orthogonalLoop=1;jettySize=auto;html=1;exitX=0.5;exitY=1;exitDx=0;exitDy=0;entryX=0.5;entryY=0;entryDx=0;entryDy=0;startArrow=classic;startFill=1;" parent="1" source="14" target="15" edge="1"><mxGeometry relative="1" as="geometry"/></mxCell><mxCell id="14" value="Region 1" style="whiteSpace=wrap;html=1;aspect=fixed;" parent="1" vertex="1"><mxGeometry x="140" y="-280" width="80" height="80" as="geometry"/></mxCell><mxCell id="15" value="Region 2" style="whiteSpace=wrap;html=1;aspect=fixed;" parent="1" vertex="1"><mxGeometry x="140" y="-140" width="80" height="80" as="geometry"/></mxCell><mxCell id="21" value="Chunk 1" style="rounded=0;whiteSpace=wrap;html=1;" parent="1" vertex="1"><mxGeometry x="280" y="-280" width="50" height="30" as="geometry"/></mxCell><mxCell id="22" value="Chunk 2" style="rounded=0;whiteSpace=wrap;html=1;" parent="1" vertex="1"><mxGeometry x="280" y="-250" width="50" height="30" as="geometry"/></mxCell><mxCell id="23" value="Chunk 3" style="rounded=0;whiteSpace=wrap;html=1;" parent="1" vertex="1"><mxGeometry x="280" y="-220" width="50" height="30" as="geometry"/></mxCell><mxCell id="24" value="Chunk 1" style="rounded=0;whiteSpace=wrap;html=1;" parent="1" vertex="1"><mxGeometry x="280" y="-140" width="50" height="30" as="geometry"/></mxCell><mxCell id="25" value="Chunk 2" style="rounded=0;whiteSpace=wrap;html=1;" parent="1" vertex="1"><mxGeometry x="280" y="-110" width="50" height="30" as="geometry"/></mxCell><mxCell id="26" value="Chunk 3" style="rounded=0;whiteSpace=wrap;html=1;" parent="1" vertex="1"><mxGeometry x="280" y="-80" width="50" height="30" as="geometry"/></mxCell><mxCell id="27" value="Players&amp;nbsp; connect to any router" style="text;html=1;strokeColor=none;fillColor=none;align=center;verticalAlign=middle;whiteSpace=wrap;rounded=0;" parent="1" vertex="1"><mxGeometry x="-410" y="-380" width="130" height="40" as="geometry"/></mxCell><mxCell id="28" value="The router converts mc proto &amp;lt;-&amp;gt; events&lt;br&gt;Also knows which player is in which region and forwards events to the right server and back" style="text;html=1;strokeColor=none;fillColor=none;align=center;verticalAlign=middle;whiteSpace=wrap;rounded=0;" parent="1" vertex="1"><mxGeometry x="-210" y="-380" width="190" height="40" as="geometry"/></mxCell><mxCell id="29" value="The regions owns part of the world and all state. &lt;br&gt;Subscribes players to chunks in their area of interest.&amp;nbsp;&amp;nbsp;&lt;br&gt;Subscribes other servers to border chunks.&lt;br&gt;Handles getting events to the subscribed players and servers.&lt;br&gt;Locks regions and objects to make sure only one server can every access them (queue)" style="text;html=1;strokeColor=none;fillColor=none;align=left;verticalAlign=middle;whiteSpace=wrap;rounded=0;" parent="1" vertex="1"><mxGeometry x="100" y="-450" width="230" height="140" as="geometry"/></mxCell><mxCell id="31" value="Regions can sub to each other, to handle borders" style="text;html=1;strokeColor=none;fillColor=none;align=center;verticalAlign=middle;whiteSpace=wrap;rounded=0;" parent="1" vertex="1"><mxGeometry x="80" y="-180" width="110" height="20" as="geometry"/></mxCell></root></mxGraphModel></diagram></mxfile>